<?xml version="1.0" encoding="utf-8"?>
<!-- Generator: Adobe Illustrator 21.1.0, SVG Export Plug-In . SVG Version: 6.00 Build 0)  -->
<!DOCTYPE svg PUBLIC "-//W3C//DTD SVG 1.1//EN" "http://www.w3.org/Graphics/SVG/1.1/DTD/svg11.dtd">
<svg version="1.1" id="Layer_1" xmlns="http://www.w3.org/2000/svg" xmlns:xlink="http://www.w3.org/1999/xlink" x="0px" y="0px"
	 viewBox="0 0 152.7 136" style="enable-background:new 0 0 152.7 136;" xml:space="preserve">
<style type="text/css">
	.st0{fill:#458AE0;}
	.st1{fill:#16232A;}
</style>
<g>
	<g>
		<path class="st0" d="M107.8,31C95.7-20.8,28-2.3,28,47h0c-36.1,0-39.9,56,3.7,56h16l0-72"/>
	</g>
	<rect x="55.2" y="38.5" class="st1" width="45" height="16.5"/>
	<path class="st0" d="M94.2,136h-36c-2.5,0-4.5-2-4.5-4.5v0c0-2.5,2-4.5,4.5-4.5h36c2.5,0,4.5,2,4.5,4.5v0
		C98.7,134,96.7,136,94.2,136z"/>
	<path class="st0" d="M122.7,119.5h-42c-2.5,0-4.5-2-4.5-4.5v0c0-2.5,2-4.5,4.5-4.5h42c2.5,0,4.5,2,4.5,4.5v0
		C127.2,117.5,125.2,119.5,122.7,119.5z"/>
	<path class="st0" d="M64.3,119.5H40.7c-2.5,0-4.5-2-4.5-4.5v0c0-2.5,2-4.5,4.5-4.5h23.6c2.5,0,4.5,2,4.5,4.5v0
		C68.8,117.5,66.8,119.5,64.3,119.5z"/>
	<path class="st0" d="M134,31h-13.5c-2.5,0-4.5-2-4.5-4.5v0c0-2.5,2-4.5,4.5-4.5H134c2.5,0,4.5,2,4.5,4.5v0
		C138.5,29,136.5,31,134,31z"/>
	<path class="st0" d="M122.7,16H115c-2.5,0-4.5-2-4.5-4.5v0c0-2.5,2-4.5,4.5-4.5h7.8c2.5,0,4.5,2,4.5,4.5v0
		C127.2,14,125.2,16,122.7,16z"/>
	<rect x="107.7" y="38.5" class="st1" width="45" height="16.5"/>
	<rect x="55.2" y="62.5" class="st1" width="45" height="16.5"/>
	<rect x="107.7" y="62.5" class="st1" width="45" height="16.5"/>
	<rect x="55.2" y="86.5" class="st1" width="45" height="16.5"/>
	<rect x="107.7" y="86.5" class="st1" width="45" height="16.5"/>
</g>
</svg>
